/* XPM */
static char * folder_locked_xpm[] = {
"32 32 89 1",
" 	c None",
".	c #274D8B",
"+	c #295193",
"@	c #6E96D8",
"#	c #5D89D3",
"$	c #3569BF",
"%	c #2D59A3",
"&	c #2F5DA9",
"*	c #5584D1",
"=	c #305FAC",
"-	c #779DDB",
";	c #7FA2DD",
">	c #85A7DF",
",	c #89A9DF",
"'	c #90AFE2",
")	c #B3C8EB",
"!	c #D2DFF4",
"~	c #DAE5F6",
"{	c #E1E9F7",
"]	c #E5EDF9",
"^	c #EAF0FA",
"/	c #F0F5FC",
"(	c #F5F8FD",
"_	c #FAFCFE",
":	c #FDFEFF",
"<	c #3161B1",
"[	c #98B5E4",
"}	c #9FB9E5",
"|	c #AAC1E8",
"1	c #B9CDED",
"2	c #BED0EE",
"3	c #C6D6F0",
"4	c #CEDCF2",
"5	c #4075CC",
"6	c #356AC1",
"7	c #D5DBE3",
"8	c #B5B9BD",
"9	c #B1B3B7",
"0	c #D4D7DB",
"a	c #2E5BA6",
"b	c #638ED5",
"c	c #9599A0",
"d	c #5F5F60",
"e	c #565656",
"f	c #4B4B4B",
"g	c #414141",
"h	c #2F3E57",
"i	c #959CA8",
"j	c #616161",
"k	c #6D6E72",
"l	c #CDD3DD",
"m	c #D9DFE8",
"n	c #676C74",
"o	c #2E2E2E",
"p	c #1E1E1E",
"q	c #3366B9",
"r	c #C1D0EA",
"s	c #6C6F73",
"t	c #565657",
"u	c #CBD5E5",
"v	c #E7EEF9",
"w	c #1D1D1D",
"x	c #4A7CCE",
"y	c #B0C1DD",
"z	c #5D6063",
"A	c #56585C",
"B	c #111111",
"C	c #0E0E0E",
"D	c #ABBDDB",
"E	c #505357",
"F	c #4F5258",
"G	c #CBD9F1",
"H	c #000000",
"I	c #214279",
"J	c #A7BADA",
"K	c #484B4F",
"L	c #474B51",
"M	c #91A4C4",
"N	c #37393C",
"O	c #35383C",
"P	c #8C9AB0",
"Q	c #8A96A8",
"R	c #204176",
"S	c #242C38",
"T	c #202020",
"U	c #020202",
"V	c #181818",
"W	c #040404",
"X	c #010101",
"                                ",
"                                ",
"                                ",
"                                ",
"                                ",
"                                ",
"                                ",
"     ......+                    ",
"     +@@@@@#.                   ",
"     +@@@@@@$.                  ",
"     +@@@@@@@%++++++++++&       ",
"     +@@@@@@@@@@@@@@@@@@&       ",
"     +@@@@@@@@@@@@@@@@@@&       ",
"     +@@*&&&&&&&&&&&&&&&&&&&    ",
"     +@@=#-;>,')!~{]^/((_::<    ",
"     +@@+[}|)1234!~{]^/((_1&    ",
"     +@56'[}|)1234!~{]7890a     ",
"     +@=b,'[}|)1234!~cdefgh     ",
"     +@+-;,'[}|)1234ijklmnop    ",
"     +5q@-;,'[}|)12rstu{v&pw    ",
"     +=xb@-;,'[}|)1yzA!~{&BC    ",
"     ++*#b@-;,'[}|)DEF4!G& H    ",
"     I=x*#b@-;,'[}|JKL34&  H    ",
"     I$5x*#b@-;,'[}MNOPQR HH    ",
"     I.............STUHHHHHHH   ",
"                   VWHHHHHHHH   ",
"                   XHHHHHHHHH   ",
"                   HHHHHHHHHH   ",
"                   HHHHHHHHHH   ",
"                   HHHHHHHHHH   ",
"                   HHHHHHHHHH   ",
"                   HHHHHHHHHH   "};
