/* XPM */
static const char *const item_locked_xpm[] = {
"32 32 87 1",
" 	c None",
".	c #4B82A8",
"+	c #74A1BD",
"@	c #6B97B6",
"#	c #5896BE",
"$	c #538BB1",
"%	c #4388B4",
"&	c #4381AA",
"*	c #D7E0E9",
"=	c #7FA6C0",
"-	c #D1E5F5",
";	c #CAE1F3",
">	c #C3DDF1",
",	c #BCD9EF",
"'	c #AFD1EC",
")	c #A5CCEA",
"!	c #97C4E7",
"~	c #85BBE2",
"{	c #71B2DE",
"]	c #71A8D1",
"^	c #4B8EBF",
"/	c #E6EAF1",
"(	c #DAEAF7",
"_	c #619BC4",
":	c #F1F4F7",
"<	c #DEEDF8",
"[	c #87ABC3",
"}	c #E5F0F9",
"|	c #76BAE2",
"1	c #63B3DE",
"2	c #54A6D8",
"3	c #E9F3FA",
"4	c #FAFCFE",
"5	c #EFF6FC",
"6	c #7AC4E5",
"7	c #8FB0C3",
"8	c #F4F9FD",
"9	c #B6D5EE",
"0	c #F7FBFD",
"a	c #ADC7DA",
"b	c #8EA3B4",
"c	c #597589",
"d	c #8A959E",
"e	c #5F5F5F",
"f	c #565656",
"g	c #4B4B4B",
"h	c #414141",
"i	c #2F2F2F",
"j	c #FDFDFE",
"k	c #5F879E",
"l	c #616161",
"m	c #676D71",
"n	c #AEC4D6",
"o	c #6D96B0",
"p	c #292929",
"q	c #2E2E2E",
"r	c #1E1E1E",
"s	c #DFEAF3",
"t	c #6F7274",
"u	c #565757",
"v	c #C3D5E4",
"w	c #1D1D1D",
"x	c #FFFFFF",
"y	c #D8E1E8",
"z	c #626365",
"A	c #595B5D",
"B	c #111111",
"C	c #0E0E0E",
"D	c #72B5D3",
"E	c #475156",
"F	c #404D55",
"G	c #000000",
"H	c #DEE4EA",
"I	c #4F5151",
"J	c #505253",
"K	c #CED2D6",
"L	c #3D3E3E",
"M	c #3D3E3F",
"N	c #ACB4B9",
"O	c #A0A8AE",
"P	c #597486",
"Q	c #4D4E4E",
"R	c #202020",
"S	c #020202",
"T	c #454646",
"U	c #040404",
"V	c #1E2529",
"                                ",
"                                ",
"                                ",
"                                ",
"                                ",
"        .+++@@##$$%&*           ",
"        =-;>,')!!~{]^/          ",
"        =(-;>,')!!~]!_:         ",
"        =<(-;>,')!!];!_:        ",
"        [}<||111121]3;!+        ",
"        [3}<(-;>,')]43;![       ",
"        [53}<(-;>,']]]]]&       ",
"        [556|||1111122!~$       ",
"        78553}<(-;>,9)!!$       ",
"        708553}<(-;>,9)!#       ",
"        7006666|||11119)#       ",
"        74008553}<(-;>abc       ",
"        744008553}<(-defghi     ",
"        7j46666666||klmnopqr    ",
"        7jj44008553stuv;+ rw    ",
"        7xjj4400855yzA(-+ BC    ",
"        7xx66666666DEF<(=  G    ",
"        7xxxjj44008HIJ}<=  G    ",
"        7xxxxjj4400KLMNOP GG    ",
"        7xxxxxjj440QRSGGGGGGG   ",
"        7xxxxxxjj44TUGGGGGGGG   ",
"        77777777777VGGGGGGGGG   ",
"                   GGGGGGGGGG   ",
"                   GGGGGGGGGG   ",
"                   GGGGGGGGGG   ",
"                   GGGGGGGGGG   ",
"                   GGGGGGGGGG   "};
